<?xml version="1.0" encoding="utf-8"?>
<!-- Generator: Adobe Illustrator 22.0.1, SVG Export Plug-In . SVG Version: 6.00 Build 0)  -->
<svg version="1.1" id="Layer_1" xmlns="http://www.w3.org/2000/svg" xmlns:xlink="http://www.w3.org/1999/xlink" x="0px" y="0px"
	 width="2024.92px" height="579px" viewBox="0 0 2024.92 579" style="enable-background:new 0 0 2024.92 579;" xml:space="preserve"
	>
<g>
	<path d="M177.53,58.1c102.93-0.33,205.89,0.03,308.85-0.18c-0.09,14.4,0.06,28.8-0.06,43.23c-102.96-0.09-205.89,0.21-308.82-0.15
		C177.65,86.69,177.65,72.41,177.53,58.1z"/>
	<path d="M102.21,133.78c14.19,0.09,28.38,0.15,42.6-0.09c0.3,103.29,0.18,206.57,0.06,309.86c-14.25-0.15-28.5-0.18-42.75,0
		C102.21,340.29,102.03,237.04,102.21,133.78z"/>
	<path d="M519.01,134.55c14.34-0.21,28.65-0.98,42.96-0.77c0.27,103.23,0.18,206.48,0.06,309.71c-14.37-0.03-28.71-0.09-43.08-0.06
		C519.27,340.47,519.19,237.51,519.01,134.55z"/>
	<path d="M1818.79,180.36c27.28-2.97,56.7-1.25,80.54,13.75c12.71,7.87,21.14,20.87,26.07,34.77
		c-12.47,5.25-24.88,10.72-37.14,16.42c-6.23-14.34-18.38-27.19-34.53-29.27c-15.59-1.81-32.78-2.55-46.91,5.28
		c-14.1,7.15-12.23,30.82,2.05,36.64c34.17,13.36,76.68,7.51,104.89,34.65c18.58,17.69,19.12,48.18,6.8,69.53
		c-10.93,19.39-32.48,29.99-53.62,34.05c-16.63,2.55-33.61,2.46-50.26,0.62c-26.96-3.33-52.88-17.22-68.7-39.54
		c10.42-9.2,20.72-18.56,30.37-28.56c13.21,19.53,35.51,32.42,59.23,32.86c14.61,0.39,32.92,0.15,41.92-13.51
		c7.04-9.35,4.57-23.31-4.22-30.58c-8.61-6.15-19.27-8.02-29.45-9.83c-23.75-4.33-48.81-7.01-69.8-19.98
		c-25.35-14.84-29.39-51.63-14.55-75.23C1773.67,192.83,1796.73,183.21,1818.79,180.36z"/>
	<path d="M205.71,184.07c14.25-0.21,28.5,0.03,42.72-0.18c-0.15,69.8-0.18,139.59,0,209.39c-14.25-0.27-28.5-0.09-42.75-0.24
		C206.18,323.4,206.09,253.72,205.71,184.07z"/>
	<path d="M310.62,183.92c14.43,0.15,28.83,0.09,43.26,0c-0.18,69.74-0.24,139.48,0.03,209.21c-14.43-0.03-28.86-0.09-43.29,0.09
		C310.74,323.46,310.74,253.69,310.62,183.92z"/>
	<path d="M416.11,183.89c14.22,0.18,28.41,0.12,42.63,0.03c-0.03,69.8-0.06,139.56,0.03,209.36c-14.28-0.21-28.53-0.27-42.78-0.09
		C416.29,323.43,416.05,253.66,416.11,183.89z"/>
	<path d="M656.73,184.04c17.22-0.21,34.44,0.36,51.66-0.24c19.92,52.52,39.72,105.13,58.13,158.18
		c20.93-52.37,39.28-105.78,60.15-158.18c16.8,0.45,33.67,0.3,50.5,0.15c-0.15,69.74-0.27,139.51,0.06,209.27
		c-13.48-0.15-26.93-0.21-40.38,0.06c1.37-47.56,0.36-95.15,0.68-142.71c-18.35,47.38-35.6,95.21-53.62,142.71
		c-11.43-0.21-22.83-0.27-34.26-0.06c-17.66-47.44-36.75-94.38-52.9-142.33c-1.42,47.35-0.36,94.88-0.47,142.3
		c-13.24-0.18-26.45-0.06-39.66-0.15C657.06,323.4,656.82,253.72,656.73,184.04z"/>
	<path d="M918.14,184.1c50.5-0.12,101.03,0.06,151.53-0.06c-0.24,12.47-0.24,24.97-0.06,37.47c-36.1,0.12-72.2-0.06-108.3,0.09
		c0.09,15.08,0.18,30.19-0.03,45.3c33.58,0.27,67.18,0.15,100.76,0.03c0.27,12.53,0.15,25.09,0.18,37.64
		c-33.67-0.09-67.33-0.24-100.97,0.03c0.3,17.07,0.12,34.11,0.03,51.18c36.72,0.33,73.48,0.3,110.23,0
		c-0.15,12.47-0.12,24.97-0.09,37.47c-51.12-0.42-102.25,0.09-153.37-0.27C918.43,323.37,918.26,253.72,918.14,184.1z"/>
	<g>
		<path d="M1110.93,183.95c28.59,0.33,57.18-0.09,85.8,0.21c20.69,1.1,42.81,4.69,59.14,18.5c19.45,16.6,22.39,45.66,15.44,68.97
			c-4.07,15.35-16.74,26.45-30.34,33.55c15.05,29.3,30.01,58.63,44.86,88.03c-15.97-0.15-31.94-0.18-47.89,0.03
			c-13.54-26.16-25.38-53.26-39.96-78.82c-14.73,0.65-29.45,0.24-44.18,0.3c-0.03,26.13-0.3,52.25,0.18,78.38
			c-14.4,0.18-28.8-0.09-43.17,0.21C1111.08,323.52,1110.87,253.72,1110.93,183.95z M1153.83,219.91
			c-0.27,19.53,0.06,39.04-0.21,58.58c19.74-1.1,40.2,2.61,59.47-2.76c23.19-6,23.87-45.63,0.68-52.04
			C1194.42,218.01,1173.75,220.65,1153.83,219.91z"/>
	</g>
	<g>
		<path d="M1301.5,393.08c28.06-69.59,55.16-139.59,83.22-209.18c14.49,0.27,29.01,0.3,43.49-0.03
			c27.97,69.68,54.98,139.71,83.19,209.3c-15.65-0.06-31.26-0.03-46.88-0.12c-5.76-15.91-11.79-31.77-17.58-47.68
			c-27.58-0.06-55.16,0.03-82.74-0.06c-5.85,15.97-11.58,32-17.63,47.89C1331.55,392.93,1316.5,393.32,1301.5,393.08z
			 M1377.15,309.62c18.97-0.59,37.97-0.59,56.94-0.03c-9.2-26.16-18.91-52.19-29.15-77.99
			C1396.65,257.97,1385.76,283.38,1377.15,309.62z"/>
	</g>
	<g>
		<path d="M1609.19,184.01c14.64,0.03,29.33,0.09,44,0c27.73,69.71,55.01,139.59,83.01,209.21c-15.62-0.18-31.23-0.15-46.82-0.09
			c-5.55-16-11.85-31.74-17.43-47.74c-27.61-0.12-55.22-0.03-82.83,0.03c-6.23,15.79-11.61,31.91-17.72,47.77
			c-15.02-0.18-30.04-0.15-45.07,0.09C1554.18,323.61,1581.67,253.81,1609.19,184.01z M1601.74,309
			c19.12,0.77,38.27-0.95,57.36,0.68c-9.32-26.42-19.59-52.52-29.18-78.82C1621.51,257.25,1611.36,283.05,1601.74,309z"/>
	</g>
	<path d="M177.5,476.38c102.93-0.36,205.89-0.03,308.85-0.18c0.15,14.31-0.15,28.59,0.09,42.87
		c-102.99-0.09-205.95,0.15-308.94-0.12C177.68,504.77,177.65,490.57,177.5,476.38z"/>
</g>
</svg>
